<svg height="512pt" viewBox="0 -66 512.00001 512" width="512pt" xmlns="http://www.w3.org/2000/svg"><path d="m437.675781 184.628906c-40.417969-56.746094-106.699219-93.789062-181.675781-93.789062s-141.257812 37.042968-181.675781 93.789062v54.855469h363.355469v-54.855469zm0 0" fill="#ff8086"/><path d="m256 90.839844c-74.976562 0-141.257812 37.042968-181.675781 93.789062v54.855469h181.675781zm0 0" fill="#e5646e"/><path d="m355.351562 223.214844c-4.152343 3.90625-10.921874 2.53125-13.21875-2.6875l-86.132812-195.753906-86.132812 195.753906c-2.296876 5.21875-9.066407 6.59375-13.21875 2.6875l-131.875-124.117188 57.804687 231.222656h346.839844l57.808593-231.222656zm0 0" fill="#ffe09f"/><path d="m189.933594 174.921875-20.066406 45.605469c-2.296876 5.21875-9.066407 6.59375-13.21875 2.6875l-131.875-124.117188 57.804687 231.222656h107.355469zm0 0" fill="#f6d190"/><path d="m280.773438 24.773438c0 13.683593-11.089844 24.773437-24.773438 24.773437s-24.773438-11.089844-24.773438-24.773437c0-13.683594 11.089844-24.773438 24.773438-24.773438s24.773438 11.089844 24.773438 24.773438zm0 0" fill="#ffe09f"/><path d="m181.675781 338.578125c-4.5625 0-8.257812-3.695313-8.257812-8.257813v-16.515624c0-4.558594 3.695312-8.257813 8.257812-8.257813 4.566407 0 8.257813 3.699219 8.257813 8.257813v16.515624c0 4.5625-3.691406 8.257813-8.257813 8.257813zm0 0" fill="#e5646e"/><path d="m132.128906 338.578125c-4.566406 0-8.257812-3.695313-8.257812-8.257813v-16.515624c0-4.558594 3.695312-8.257813 8.257812-8.257813s8.257813 3.699219 8.257813 8.257813v16.515624c0 4.5625-3.691407 8.257813-8.257813 8.257813zm0 0" fill="#e5646e"/><path d="m379.871094 338.578125c-4.566406 0-8.257813-3.695313-8.257813-8.257813v-16.515624c0-4.558594 3.695313-8.257813 8.257813-8.257813s8.257812 3.699219 8.257812 8.257813v16.515624c0 4.5625-3.695312 8.257813-8.257812 8.257813zm0 0" fill="#ff8086"/><path d="m330.324219 338.578125c-4.566407 0-8.257813-3.695313-8.257813-8.257813v-16.515624c0-4.558594 3.691406-8.257813 8.257813-8.257813 4.5625 0 8.257812 3.699219 8.257812 8.257813v16.515624c0 4.5625-3.695312 8.257813-8.257812 8.257813zm0 0" fill="#ff8086"/><path d="m264.257812 41.289062c-13.683593 0-24.773437-11.089843-24.773437-24.773437 0-4.71875 1.332031-9.140625 3.621094-12.894531-7.128907 4.351562-11.878907 12.1875-11.878907 21.152344 0 13.683593 11.089844 24.773437 24.773438 24.773437 8.964844 0 16.804688-4.742187 21.15625-11.875-3.753906 2.289063-8.179688 3.617187-12.898438 3.617187zm0 0" fill="#f6d190"/><path d="m512 99.097656c0 13.679688-11.089844 24.773438-24.773438 24.773438-13.683593 0-24.773437-11.09375-24.773437-24.773438 0-13.683594 11.089844-24.777344 24.773437-24.777344 13.683594 0 24.773438 11.09375 24.773438 24.777344zm0 0" fill="#ffe09f"/><path d="m495.484375 115.613281c-13.683594 0-24.773437-11.09375-24.773437-24.773437 0-4.71875 1.328124-9.144532 3.617187-12.898438-7.128906 4.351563-11.875 12.191406-11.875 21.15625 0 13.679688 11.089844 24.773438 24.773437 24.773438 8.964844 0 16.804688-4.746094 21.15625-11.878906-3.753906 2.289062-8.179687 3.621093-12.898437 3.621093zm0 0" fill="#f6d190"/><path d="m49.546875 99.097656c0 13.679688-11.089844 24.773438-24.773437 24.773438-13.683594 0-24.773438-11.09375-24.773438-24.773438 0-13.683594 11.089844-24.777344 24.773438-24.777344 13.683593 0 24.773437 11.09375 24.773437 24.777344zm0 0" fill="#ffe09f"/><path d="m33.03125 115.613281c-13.679688 0-24.773438-11.09375-24.773438-24.773437 0-4.71875 1.332032-9.140625 3.625-12.894532-7.132812 4.347657-11.882812 12.1875-11.882812 21.152344 0 13.679688 11.09375 24.773438 24.773438 24.773438 8.964843 0 16.804687-4.75 21.152343-11.878906-3.75 2.289062-8.175781 3.621093-12.894531 3.621093zm0 0" fill="#f6d190"/><path d="m421.160156 379.871094h-330.320312c-4.5625 0-8.257813-3.699219-8.257813-8.257813v-41.292969h346.839844v41.292969c-.003906 4.558594-3.699219 8.257813-8.261719 8.257813zm0 0" fill="#f6d190"/><path d="m189.933594 330.320312h-107.351563v41.292969c0 4.558594 3.695313 8.257813 8.257813 8.257813h330.320312c4.5625 0 8.261719-3.699219 8.261719-8.257813v-8.257812h-206.453125c-18.242188 0-33.035156-14.789063-33.035156-33.035157zm0 0" fill="#ecbd83"/><path d="m289.03125 313.804688c0 18.246093-14.789062 33.035156-33.03125 33.035156s-33.03125-14.789063-33.03125-33.035156c0-18.242188 14.789062-33.03125 33.03125-33.03125s33.03125 14.789062 33.03125 33.03125zm0 0" fill="#ff8086"/><path d="m268.386719 334.449219c-18.242188 0-33.03125-14.789063-33.03125-33.03125 0-5.925781 1.578125-11.519531 4.3125-16.332031-9.988281 5.679687-16.699219 16.40625-16.699219 28.71875 0 18.246093 14.789062 33.035156 33.03125 33.035156 12.316406 0 23.035156-6.710938 28.71875-16.703125-4.8125 2.734375-10.402344 4.3125-16.332031 4.3125zm0 0" fill="#e5646e"/></svg>